<?xml version="1.0" encoding="UTF-8" standalone="no"?>
<svg width="80px" height="80px" viewBox="0 0 80 80" version="1.1" xmlns="http://www.w3.org/2000/svg" xmlns:xlink="http://www.w3.org/1999/xlink">
    <!-- Generator: Sketch 39.1 (31720) - http://www.bohemiancoding.com/sketch -->
    <title>embed_move_hint</title>
    <desc>Created with Sketch.</desc>
    <defs>
        <path d="M112.053153,509.770308 C112.959025,508.857492 114.214623,508.292232 115.602245,508.292232 C118.044634,508.292232 120.078008,510.043431 120.51525,512.35871 C121.365299,511.690669 122.437242,511.292232 123.602245,511.292232 C126.044634,511.292232 128.078008,513.043431 128.51525,515.35871 C129.365299,514.690669 130.437242,514.292232 131.602245,514.292232 C134.363669,514.292232 136.602245,516.530809 136.602245,519.292232 C136.602245,519.725531 136.547129,520.145957 136.443524,520.546881 C136.5354,531.502269 138.436879,548.196133 129.170739,554.127941 C119.687597,560.198665 106.410773,557.167232 92.5357731,533.417232 C90.206401,529.430019 90.0614381,527.54137 91.4107731,525.792232 C94.7857731,521.417232 103.035773,531.417232 103.035773,530.917232 C103.035773,517.702297 102.966164,497.220206 102.958357,494.96465 C102.957885,494.933235 102.957648,494.901803 102.957648,494.870357 C102.957648,494.853442 102.957717,494.836561 102.957853,494.819716 C102.957718,494.780831 102.957648,494.760982 102.957648,494.760982 L102.958609,494.760991 C103.006485,492.047192 104.838602,490.267211 107.577223,490.267211 C110.352466,490.267211 112.113898,491.938864 112.113898,494.714107 C112.113898,494.755762 112.113501,494.797429 112.11271,494.839097 L112.113899,494.839107 L112.053153,509.770308 Z" id="path-1"></path>
        <filter x="-50%" y="-50%" width="200%" height="200%" filterUnits="objectBoundingBox" id="filter-2">
            <feOffset dx="0" dy="1" in="SourceAlpha" result="shadowOffsetOuter1"></feOffset>
            <feGaussianBlur stdDeviation="2" in="shadowOffsetOuter1" result="shadowBlurOuter1"></feGaussianBlur>
            <feColorMatrix values="0 0 0 0 0   0 0 0 0 0   0 0 0 0 0  0 0 0 0.5 0" type="matrix" in="shadowBlurOuter1"></feColorMatrix>
        </filter>
        <radialGradient cx="56.6176471%" cy="0%" fx="56.6176471%" fy="0%" r="243.577206%" id="radialGradient-3">
            <stop stop-color="#F75223" offset="0%"></stop>
            <stop stop-color="#FFF0EC" offset="100%"></stop>
        </radialGradient>
    </defs>
    <g id="z" stroke="none" stroke-width="1" fill="none" fill-rule="evenodd">
        <g id="new-icons-copy-3" transform="translate(-68.000000, -476.000000)">
            <g id="Combined-Shape" transform="translate(113.608328, 523.549484) rotate(-30.000000) translate(-113.608328, -523.549484) ">
                <use fill="black" fill-opacity="1" filter="url(#filter-2)" xlink:href="#path-1"></use>
                <use fill="#FFFFFF" fill-rule="evenodd" xlink:href="#path-1"></use>
            </g>
            <g id="Group-11" transform="translate(76.000000, 483.000000)">
                <g id="Group-10" transform="translate(37.544672, 41.194864) rotate(-30.000000) translate(-37.544672, -41.194864) translate(14.044672, 7.194864)">
                    <g id="Group-9" transform="translate(0.000000, 0.356647)">
                        <g id="Group-7-Copy-3" transform="translate(-0.000000, 33.916180)"></g>
                        <path d="M16.5341372,43.9214526 C16.5341372,43.9214526 6.27449331,31.7964183 2.03497078,34.3401318 C-2.20455176,36.8838453 3.64598817,43.751871 8.05509234,49.7719929 C12.4641965,55.7921148 20.0105458,66.4757121 29.846238,66.4757119 C39.6819302,66.4757118 46.1260042,59.189217 46.1260042,50.20087" id="Combined-Shape" stroke="#333333" stroke-width="2" stroke-linecap="round" stroke-linejoin="round"></path>
                        <g id="Group-7-Copy-4" transform="translate(13.566472, 0.000000)" stroke="#333333" stroke-width="2" stroke-linecap="round">
                            <path d="M12.2098246,17.6364134 C14.4575913,17.6364134 16.2797662,19.4488825 16.2797662,21.7156457 L16.2797662,29.083124 M8.13988309,31.6268374 L8.13988309,21.7156457 C8.13988309,19.4627479 9.96663174,17.6364134 12.2098246,17.6364134 M20.3497077,20.3497077 C22.5974744,20.3497077 24.4196493,22.1621769 24.4196493,24.4289401 L24.4196493,30.1853998 M16.2797662,30.609352 L16.2797662,24.4289401 C16.2797662,22.1760422 18.1065148,20.3497077 20.3497077,20.3497077 M28.4895908,23.0630021 C30.7373575,23.0630021 32.5595324,24.6941623 32.5595324,26.7341715 C32.5595324,26.7341715 32.5595323,44.8519754 32.5595323,50.1792836 M24.4196493,26.7341715 C24.4196493,24.7066406 26.2463979,23.0630021 28.4895908,23.0630021 M4.06994155,-4.61852778e-14 C6.31770819,-4.61852778e-14 8.13988309,1.81046048 8.13988309,4.07178319 L8.13988309,22.9782116 M1.90070182e-13,40.6975738 L1.90070182e-13,27.5582207 L1.90070182e-13,4.07178319 C1.90070182e-13,1.82299943 1.82674865,-2.77111667e-13 4.06994155,-2.77111667e-13" id="Combined-Shape"></path>
                        </g>
                    </g>
                </g>
            </g>
            <g id="Group-9-Copy" transform="translate(110.467622, 525.127876) rotate(-30.000000) translate(-110.467622, -525.127876) translate(85.967622, 490.627876)">
                <g id="Group-7-Copy-3" transform="translate(1.000000, 35.916180)"></g>
                <g id="Group-7-Copy-4" transform="translate(0.566472, 0.000000)"></g>
            </g>
            <path d="M107.184341,504.217556 C107.713946,502.573518 108,500.820165 108,499 C108,489.611159 100.388841,482 91,482 C81.6111593,482 74,489.611159 74,499 C74,508.388841 81.6111593,516 91,516" id="Oval-12" stroke="url(#radialGradient-3)" stroke-width="4" stroke-linecap="round"></path>
        </g>
    </g>
</svg>